<svg xmlns="http://www.w3.org/2000/svg" viewBox="0 0 77.9 66.5"><defs><style>.cls-1{fill:#fff;}</style></defs><title>RedditAMA_Lockup2_OnDark</title><g id="Layer_2" data-name="Layer 2"><path class="cls-1" d="M114.3,131.77l-5.08-17L112.7,99.2l3.7-17.5,12.2,2.6a5.8,5.8,0,1,0,5.8-6,5.64,5.64,0,0,0-5.2,3.3l-13.6-2.9a1.39,1.39,0,0,0-1.1.2,1.15,1.15,0,0,0-.6.9l-4.2,19.5c-8.7.2-16.5,2.8-22.2,6.9a8.36,8.36,0,0,0-5.7-2.3,8.24,8.24,0,0,0-8.2,8.2,8.08,8.08,0,0,0,4.8,7.4,19.48,19.48,0,0,0-.2,2.5c0,11.92,13.06,21.68,29.79,22.71Zm-16-8.17a5.8,5.8,0,0,1-5.8-5.8,5.91,5.91,0,0,1,.1-1l7.86-4.34A5.8,5.8,0,0,1,98.3,123.6Z" transform="translate(-73.6 -78.3)"/><path class="cls-1" d="M143.3,103.8a8.36,8.36,0,0,0-5.7,2.3c-5.6-4-13.3-6.6-21.9-6.9l-3.48,15.56,5.08,17L111,144.71c1,0,1.93.09,2.91.09,18.1,0,32.7-10.2,32.7-22.8a22.86,22.86,0,0,0-.2-2.5,8.13,8.13,0,0,0,5.1-7.5A8.24,8.24,0,0,0,143.3,103.8ZM127,123.6a5.8,5.8,0,0,1-2.13-11.19l7.83,4.32a6.26,6.26,0,0,1,.1,1.07A5.8,5.8,0,0,1,127,123.6Z" transform="translate(-73.6 -78.3)"/></g></svg>